<svg width="88" height="31" viewBox="0 0 88 31" fill="none" xmlns="http://www.w3.org/2000/svg">
<g clip-path="url(#clip0_250_263)">
<rect width="88" height="31" rx="15" fill="white"/>
<path d="M26.688 21.126C25.764 21.126 24.936 20.976 24.204 20.676C23.472 20.376 22.884 19.932 22.44 19.344C22.008 18.756 21.78 18.048 21.756 17.22H25.032C25.08 17.688 25.242 18.048 25.518 18.3C25.794 18.54 26.154 18.66 26.598 18.66C27.054 18.66 27.414 18.558 27.678 18.354C27.942 18.138 28.074 17.844 28.074 17.472C28.074 17.16 27.966 16.902 27.75 16.698C27.546 16.494 27.288 16.326 26.976 16.194C26.676 16.062 26.244 15.912 25.68 15.744C24.864 15.492 24.198 15.24 23.682 14.988C23.166 14.736 22.722 14.364 22.35 13.872C21.978 13.38 21.792 12.738 21.792 11.946C21.792 10.77 22.218 9.852 23.07 9.192C23.922 8.52 25.032 8.184 26.4 8.184C27.792 8.184 28.914 8.52 29.766 9.192C30.618 9.852 31.074 10.776 31.134 11.964H27.804C27.78 11.556 27.63 11.238 27.354 11.01C27.078 10.77 26.724 10.65 26.292 10.65C25.92 10.65 25.62 10.752 25.392 10.956C25.164 11.148 25.05 11.43 25.05 11.802C25.05 12.21 25.242 12.528 25.626 12.756C26.01 12.984 26.61 13.23 27.426 13.494C28.242 13.77 28.902 14.034 29.406 14.286C29.922 14.538 30.366 14.904 30.738 15.384C31.11 15.864 31.296 16.482 31.296 17.238C31.296 17.958 31.11 18.612 30.738 19.2C30.378 19.788 29.85 20.256 29.154 20.604C28.458 20.952 27.636 21.126 26.688 21.126ZM38.7882 18.39V21H37.2222C36.1062 21 35.2362 20.73 34.6122 20.19C33.9882 19.638 33.6762 18.744 33.6762 17.508V13.512H32.4522V10.956H33.6762V8.508H36.7542V10.956H38.7702V13.512H36.7542V17.544C36.7542 17.844 36.8262 18.06 36.9702 18.192C37.1142 18.324 37.3542 18.39 37.6902 18.39H38.7882ZM39.8907 15.96C39.8907 14.928 40.0827 14.022 40.4667 13.242C40.8627 12.462 41.3967 11.862 42.0687 11.442C42.7407 11.022 43.4907 10.812 44.3187 10.812C45.0267 10.812 45.6447 10.956 46.1727 11.244C46.7127 11.532 47.1267 11.91 47.4147 12.378V10.956H50.4927V21H47.4147V19.578C47.1147 20.046 46.6947 20.424 46.1547 20.712C45.6267 21 45.0087 21.144 44.3007 21.144C43.4847 21.144 42.7407 20.934 42.0687 20.514C41.3967 20.082 40.8627 19.476 40.4667 18.696C40.0827 17.904 39.8907 16.992 39.8907 15.96ZM47.4147 15.978C47.4147 15.21 47.1987 14.604 46.7667 14.16C46.3467 13.716 45.8307 13.494 45.2187 13.494C44.6067 13.494 44.0847 13.716 43.6527 14.16C43.2327 14.592 43.0227 15.192 43.0227 15.96C43.0227 16.728 43.2327 17.34 43.6527 17.796C44.0847 18.24 44.6067 18.462 45.2187 18.462C45.8307 18.462 46.3467 18.24 46.7667 17.796C47.1987 17.352 47.4147 16.746 47.4147 15.978ZM55.7975 12.63C56.1575 12.078 56.6075 11.646 57.1475 11.334C57.6875 11.01 58.2875 10.848 58.9475 10.848V14.106H58.1015C57.3335 14.106 56.7575 14.274 56.3735 14.61C55.9895 14.934 55.7975 15.51 55.7975 16.338V21H52.7195V10.956H55.7975V12.63ZM66.0167 18.39V21H64.4507C63.3347 21 62.4647 20.73 61.8407 20.19C61.2167 19.638 60.9047 18.744 60.9047 17.508V13.512H59.6807V10.956H60.9047V8.508H63.9827V10.956H65.9987V13.512H63.9827V17.544C63.9827 17.844 64.0547 18.06 64.1987 18.192C64.3427 18.324 64.5827 18.39 64.9187 18.39H66.0167Z" fill="#D85E09"/>
</g>
<defs>
<clipPath id="clip0_250_263">
<rect width="88" height="31" rx="15" fill="white"/>
</clipPath>
</defs>
</svg>
