<svg width="105" height="31" viewBox="0 0 105 31" fill="none" xmlns="http://www.w3.org/2000/svg">
<g clip-path="url(#clip0_250_299)">
<rect width="105" height="31" rx="15" fill="white"/>
<path d="M25.14 8.364V15.924C25.14 16.68 25.326 17.262 25.698 17.67C26.07 18.078 26.616 18.282 27.336 18.282C28.056 18.282 28.608 18.078 28.992 17.67C29.376 17.262 29.568 16.68 29.568 15.924V8.364H32.646V15.906C32.646 17.034 32.406 17.988 31.926 18.768C31.446 19.548 30.798 20.136 29.982 20.532C29.178 20.928 28.278 21.126 27.282 21.126C26.286 21.126 25.392 20.934 24.6 20.55C23.82 20.154 23.202 19.566 22.746 18.786C22.29 17.994 22.062 17.034 22.062 15.906V8.364H25.14ZM40.9274 10.848C42.1034 10.848 43.0394 11.232 43.7354 12C44.4434 12.756 44.7974 13.8 44.7974 15.132V21H41.7374V15.546C41.7374 14.874 41.5634 14.352 41.2154 13.98C40.8674 13.608 40.3994 13.422 39.8114 13.422C39.2234 13.422 38.7554 13.608 38.4074 13.98C38.0594 14.352 37.8854 14.874 37.8854 15.546V21H34.8074V10.956H37.8854V12.288C38.1974 11.844 38.6174 11.496 39.1454 11.244C39.6734 10.98 40.2674 10.848 40.9274 10.848ZM50.0143 7.68V21H46.9363V7.68H50.0143ZM56.8169 21.144C55.8329 21.144 54.9449 20.934 54.1529 20.514C53.3729 20.094 52.7549 19.494 52.2989 18.714C51.8549 17.934 51.6329 17.022 51.6329 15.978C51.6329 14.946 51.8609 14.04 52.3169 13.26C52.7729 12.468 53.3969 11.862 54.1889 11.442C54.9809 11.022 55.8689 10.812 56.8529 10.812C57.8369 10.812 58.7249 11.022 59.5169 11.442C60.3089 11.862 60.9329 12.468 61.3889 13.26C61.8449 14.04 62.0729 14.946 62.0729 15.978C62.0729 17.01 61.8389 17.922 61.3709 18.714C60.9149 19.494 60.2849 20.094 59.4809 20.514C58.6889 20.934 57.8009 21.144 56.8169 21.144ZM56.8169 18.48C57.4049 18.48 57.9029 18.264 58.3109 17.832C58.7309 17.4 58.9409 16.782 58.9409 15.978C58.9409 15.174 58.7369 14.556 58.3289 14.124C57.9329 13.692 57.4409 13.476 56.8529 13.476C56.2529 13.476 55.7549 13.692 55.3589 14.124C54.9629 14.544 54.7649 15.162 54.7649 15.978C54.7649 16.782 54.9569 17.4 55.3409 17.832C55.7369 18.264 56.2289 18.48 56.8169 18.48ZM63.0938 15.978C63.0938 14.934 63.3038 14.022 63.7238 13.242C64.1558 12.462 64.7498 11.862 65.5058 11.442C66.2738 11.022 67.1498 10.812 68.1338 10.812C69.3938 10.812 70.4438 11.142 71.2838 11.802C72.1358 12.462 72.6938 13.392 72.9578 14.592H69.6818C69.4058 13.824 68.8718 13.44 68.0798 13.44C67.5158 13.44 67.0658 13.662 66.7298 14.106C66.3938 14.538 66.2258 15.162 66.2258 15.978C66.2258 16.794 66.3938 17.424 66.7298 17.868C67.0658 18.3 67.5158 18.516 68.0798 18.516C68.8718 18.516 69.4058 18.132 69.6818 17.364H72.9578C72.6938 18.54 72.1358 19.464 71.2838 20.136C70.4318 20.808 69.3818 21.144 68.1338 21.144C67.1498 21.144 66.2738 20.934 65.5058 20.514C64.7498 20.094 64.1558 19.494 63.7238 18.714C63.3038 17.934 63.0938 17.022 63.0938 15.978ZM80.7423 21L77.6823 16.788V21H74.6043V7.68H77.6823V15.042L80.7243 10.956H84.5223L80.3463 15.996L84.5583 21H80.7423Z" fill="#D85E09"/>
</g>
<defs>
<clipPath id="clip0_250_299">
<rect width="105" height="31" rx="15" fill="white"/>
</clipPath>
</defs>
</svg>
