<svg width="423" height="227" viewBox="0 0 423 227" fill="none" xmlns="http://www.w3.org/2000/svg">
<g filter="url(#filter0_d_370_362)">
<g clip-path="url(#clip0_370_362)">
<rect x="18" y="16" width="383" height="187" rx="25" fill="url(#paint0_linear_370_362)"/>
<path d="M58.0059 55L61.873 67.1562H62.0215L65.8965 55H69.6465L64.1309 71H59.7715L54.248 55H58.0059ZM73.5996 71.2266C72.834 71.2266 72.1517 71.0938 71.5527 70.8281C70.9538 70.5573 70.4798 70.1589 70.1309 69.6328C69.7871 69.1016 69.6152 68.4401 69.6152 67.6484C69.6152 66.9818 69.7376 66.4219 69.9824 65.9687C70.2272 65.5156 70.5605 65.151 70.9824 64.875C71.4043 64.599 71.8835 64.3906 72.4199 64.25C72.9616 64.1094 73.5293 64.0104 74.123 63.9531C74.821 63.8802 75.3835 63.8125 75.8105 63.75C76.2376 63.6823 76.5475 63.5833 76.7402 63.4531C76.9329 63.3229 77.0293 63.1302 77.0293 62.875V62.8281C77.0293 62.3333 76.873 61.9505 76.5605 61.6797C76.2533 61.4089 75.8158 61.2734 75.248 61.2734C74.6491 61.2734 74.1725 61.4062 73.8184 61.6719C73.4642 61.9323 73.2298 62.2604 73.1152 62.6562L70.0371 62.4062C70.1934 61.6771 70.5007 61.0469 70.959 60.5156C71.4173 59.9792 72.0085 59.5677 72.7324 59.2812C73.4616 58.9896 74.3053 58.8438 75.2637 58.8438C75.9303 58.8438 76.5684 58.9219 77.1777 59.0781C77.7923 59.2344 78.3366 59.4766 78.8105 59.8047C79.2897 60.1328 79.6673 60.5547 79.9434 61.0703C80.2194 61.5807 80.3574 62.1927 80.3574 62.9062V71H77.2012V69.3359H77.1074C76.9147 69.7109 76.6569 70.0417 76.334 70.3281C76.0111 70.6094 75.623 70.8307 75.1699 70.9922C74.7168 71.1484 74.1934 71.2266 73.5996 71.2266ZM74.5527 68.9297C75.0423 68.9297 75.4746 68.8333 75.8496 68.6406C76.2246 68.4427 76.5189 68.1771 76.7324 67.8438C76.946 67.5104 77.0527 67.1328 77.0527 66.7109V65.4375C76.9486 65.5052 76.8053 65.5677 76.623 65.625C76.446 65.6771 76.2454 65.7266 76.0215 65.7734C75.7975 65.8151 75.5736 65.8542 75.3496 65.8906C75.1257 65.9219 74.9225 65.9505 74.7402 65.9766C74.3496 66.0339 74.0085 66.125 73.7168 66.25C73.4251 66.375 73.1986 66.5443 73.0371 66.7578C72.8757 66.9661 72.7949 67.2266 72.7949 67.5391C72.7949 67.9922 72.959 68.3385 73.2871 68.5781C73.6204 68.8125 74.0423 68.9297 74.5527 68.9297ZM82.9395 71V59H86.166V61.0937H86.291C86.5098 60.349 86.877 59.7865 87.3926 59.4063C87.9082 59.0208 88.502 58.8281 89.1738 58.8281C89.3405 58.8281 89.5202 58.8385 89.7129 58.8594C89.9056 58.8802 90.0749 58.9089 90.2207 58.9453V61.8984C90.0645 61.8516 89.8483 61.8099 89.5723 61.7734C89.2962 61.737 89.0436 61.7188 88.8145 61.7188C88.3249 61.7188 87.8874 61.8255 87.502 62.0391C87.1217 62.2474 86.8197 62.5391 86.5957 62.9141C86.377 63.2891 86.2676 63.7214 86.2676 64.2109V71H82.9395ZM91.9414 71V59H95.2695V71H91.9414ZM93.6133 57.4531C93.1185 57.4531 92.694 57.2891 92.3398 56.9609C91.9909 56.6276 91.8164 56.2292 91.8164 55.7656C91.8164 55.3073 91.9909 54.9141 92.3398 54.5859C92.694 54.2526 93.1185 54.0859 93.6133 54.0859C94.1081 54.0859 94.5299 54.2526 94.8789 54.5859C95.2331 54.9141 95.4102 55.3073 95.4102 55.7656C95.4102 56.2292 95.2331 56.6276 94.8789 56.9609C94.5299 57.2891 94.1081 57.4531 93.6133 57.4531ZM101.357 71.2266C100.592 71.2266 99.9095 71.0938 99.3105 70.8281C98.7116 70.5573 98.2376 70.1589 97.8887 69.6328C97.5449 69.1016 97.373 68.4401 97.373 67.6484C97.373 66.9818 97.4954 66.4219 97.7402 65.9687C97.985 65.5156 98.3184 65.151 98.7402 64.875C99.1621 64.599 99.6413 64.3906 100.178 64.25C100.719 64.1094 101.287 64.0104 101.881 63.9531C102.579 63.8802 103.141 63.8125 103.568 63.75C103.995 63.6823 104.305 63.5833 104.498 63.4531C104.691 63.3229 104.787 63.1302 104.787 62.875V62.8281C104.787 62.3333 104.631 61.9505 104.318 61.6797C104.011 61.4089 103.574 61.2734 103.006 61.2734C102.407 61.2734 101.93 61.4062 101.576 61.6719C101.222 61.9323 100.988 62.2604 100.873 62.6562L97.7949 62.4062C97.9512 61.6771 98.2585 61.0469 98.7168 60.5156C99.1751 59.9792 99.7663 59.5677 100.49 59.2812C101.219 58.9896 102.063 58.8438 103.021 58.8438C103.688 58.8438 104.326 58.9219 104.936 59.0781C105.55 59.2344 106.094 59.4766 106.568 59.8047C107.048 60.1328 107.425 60.5547 107.701 61.0703C107.977 61.5807 108.115 62.1927 108.115 62.9062V71H104.959V69.3359H104.865C104.673 69.7109 104.415 70.0417 104.092 70.3281C103.769 70.6094 103.381 70.8307 102.928 70.9922C102.475 71.1484 101.951 71.2266 101.357 71.2266ZM102.311 68.9297C102.8 68.9297 103.232 68.8333 103.607 68.6406C103.982 68.4427 104.277 68.1771 104.49 67.8438C104.704 67.5104 104.811 67.1328 104.811 66.7109V65.4375C104.706 65.5052 104.563 65.5677 104.381 65.625C104.204 65.6771 104.003 65.7266 103.779 65.7734C103.555 65.8151 103.331 65.8542 103.107 65.8906C102.883 65.9219 102.68 65.9505 102.498 65.9766C102.107 66.0339 101.766 66.125 101.475 66.25C101.183 66.375 100.956 66.5443 100.795 66.7578C100.633 66.9661 100.553 67.2266 100.553 67.5391C100.553 67.9922 100.717 68.3385 101.045 68.5781C101.378 68.8125 101.8 68.9297 102.311 68.9297ZM110.76 71V55H114.088V61.0156H114.189C114.335 60.6927 114.546 60.3646 114.822 60.0312C115.104 59.6927 115.468 59.4115 115.916 59.1875C116.369 58.9583 116.932 58.8438 117.604 58.8438C118.479 58.8438 119.286 59.0729 120.025 59.5313C120.765 59.9844 121.356 60.6693 121.799 61.5859C122.242 62.4974 122.463 63.6406 122.463 65.0156C122.463 66.3542 122.247 67.4844 121.814 68.4062C121.387 69.3229 120.804 70.0182 120.064 70.4922C119.33 70.9609 118.507 71.1953 117.596 71.1953C116.95 71.1953 116.4 71.0885 115.947 70.875C115.499 70.6615 115.132 70.3932 114.846 70.0703C114.559 69.7422 114.34 69.4115 114.189 69.0781H114.041V71H110.76ZM114.018 65C114.018 65.7135 114.117 66.3359 114.314 66.8672C114.512 67.3984 114.799 67.8125 115.174 68.1094C115.549 68.401 116.005 68.5469 116.541 68.5469C117.083 68.5469 117.541 68.3984 117.916 68.1016C118.291 67.7995 118.575 67.3828 118.768 66.8516C118.965 66.3151 119.064 65.6979 119.064 65C119.064 64.3073 118.968 63.6979 118.775 63.1719C118.583 62.6458 118.299 62.2344 117.924 61.9375C117.549 61.6406 117.088 61.4922 116.541 61.4922C115.999 61.4922 115.541 61.6354 115.166 61.9219C114.796 62.2083 114.512 62.6146 114.314 63.1406C114.117 63.6667 114.018 64.2865 114.018 65ZM128.012 55V71H124.684V55H128.012ZM136.146 71.2344C134.912 71.2344 133.85 70.9844 132.959 70.4844C132.074 69.9792 131.391 69.2656 130.912 68.3437C130.433 67.4167 130.193 66.3203 130.193 65.0547C130.193 63.8203 130.433 62.737 130.912 61.8047C131.391 60.8724 132.066 60.1458 132.936 59.625C133.811 59.1042 134.837 58.8438 136.014 58.8438C136.805 58.8438 137.542 58.9714 138.225 59.2266C138.912 59.4766 139.511 59.8542 140.021 60.3594C140.537 60.8646 140.938 61.5 141.225 62.2656C141.511 63.026 141.654 63.9167 141.654 64.9375V65.8516H131.521V63.7891H138.521C138.521 63.3099 138.417 62.8854 138.209 62.5156C138.001 62.1458 137.712 61.8568 137.342 61.6484C136.977 61.4349 136.553 61.3281 136.068 61.3281C135.563 61.3281 135.115 61.4453 134.725 61.6797C134.339 61.9089 134.037 62.2187 133.818 62.6094C133.6 62.9948 133.488 63.4245 133.482 63.8984V65.8594C133.482 66.4531 133.592 66.9661 133.811 67.3984C134.035 67.8307 134.35 68.1641 134.756 68.3984C135.162 68.6328 135.644 68.75 136.201 68.75C136.571 68.75 136.91 68.6979 137.217 68.5938C137.524 68.4896 137.787 68.3333 138.006 68.125C138.225 67.9167 138.391 67.6615 138.506 67.3594L141.584 67.5625C141.428 68.3021 141.107 68.9479 140.623 69.5C140.144 70.0469 139.524 70.474 138.764 70.7813C138.008 71.0833 137.136 71.2344 136.146 71.2344ZM153.811 62.4219L150.764 62.6094C150.712 62.349 150.6 62.1146 150.428 61.9062C150.256 61.6927 150.029 61.5234 149.748 61.3984C149.472 61.2682 149.141 61.2031 148.756 61.2031C148.24 61.2031 147.805 61.3125 147.451 61.5312C147.097 61.7448 146.92 62.0312 146.92 62.3906C146.92 62.6771 147.035 62.9193 147.264 63.1172C147.493 63.3151 147.886 63.474 148.443 63.5937L150.615 64.0312C151.782 64.2708 152.652 64.6562 153.225 65.1875C153.798 65.7187 154.084 66.4167 154.084 67.2812C154.084 68.0677 153.852 68.7578 153.389 69.3516C152.93 69.9453 152.3 70.4089 151.498 70.7422C150.701 71.0703 149.782 71.2344 148.74 71.2344C147.152 71.2344 145.886 70.9036 144.943 70.2422C144.006 69.5755 143.456 68.6693 143.295 67.5234L146.568 67.3516C146.667 67.8359 146.907 68.2057 147.287 68.4609C147.667 68.7109 148.154 68.8359 148.748 68.8359C149.331 68.8359 149.8 68.724 150.154 68.5C150.514 68.2708 150.696 67.9766 150.701 67.6172C150.696 67.3151 150.568 67.0677 150.318 66.875C150.068 66.6771 149.683 66.526 149.162 66.4219L147.084 66.0078C145.912 65.7734 145.04 65.3672 144.467 64.7891C143.899 64.2109 143.615 63.474 143.615 62.5781C143.615 61.8073 143.824 61.1432 144.24 60.5859C144.662 60.0286 145.253 59.599 146.014 59.2969C146.779 58.9948 147.675 58.8438 148.701 58.8438C150.217 58.8438 151.41 59.1641 152.279 59.8047C153.154 60.4453 153.665 61.3177 153.811 62.4219ZM164.693 71.2266C163.928 71.2266 163.245 71.0938 162.646 70.8281C162.048 70.5573 161.574 70.1589 161.225 69.6328C160.881 69.1016 160.709 68.4401 160.709 67.6484C160.709 66.9818 160.831 66.4219 161.076 65.9687C161.321 65.5156 161.654 65.151 162.076 64.875C162.498 64.599 162.977 64.3906 163.514 64.25C164.055 64.1094 164.623 64.0104 165.217 63.9531C165.915 63.8802 166.477 63.8125 166.904 63.75C167.331 63.6823 167.641 63.5833 167.834 63.4531C168.027 63.3229 168.123 63.1302 168.123 62.875V62.8281C168.123 62.3333 167.967 61.9505 167.654 61.6797C167.347 61.4089 166.91 61.2734 166.342 61.2734C165.743 61.2734 165.266 61.4062 164.912 61.6719C164.558 61.9323 164.324 62.2604 164.209 62.6562L161.131 62.4062C161.287 61.6771 161.594 61.0469 162.053 60.5156C162.511 59.9792 163.102 59.5677 163.826 59.2812C164.555 58.9896 165.399 58.8438 166.357 58.8438C167.024 58.8438 167.662 58.9219 168.271 59.0781C168.886 59.2344 169.43 59.4766 169.904 59.8047C170.383 60.1328 170.761 60.5547 171.037 61.0703C171.313 61.5807 171.451 62.1927 171.451 62.9062V71H168.295V69.3359H168.201C168.008 69.7109 167.751 70.0417 167.428 70.3281C167.105 70.6094 166.717 70.8307 166.264 70.9922C165.811 71.1484 165.287 71.2266 164.693 71.2266ZM165.646 68.9297C166.136 68.9297 166.568 68.8333 166.943 68.6406C167.318 68.4427 167.613 68.1771 167.826 67.8438C168.04 67.5104 168.146 67.1328 168.146 66.7109V65.4375C168.042 65.5052 167.899 65.5677 167.717 65.625C167.54 65.6771 167.339 65.7266 167.115 65.7734C166.891 65.8151 166.667 65.8542 166.443 65.8906C166.219 65.9219 166.016 65.9505 165.834 65.9766C165.443 66.0339 165.102 66.125 164.811 66.25C164.519 66.375 164.292 66.5443 164.131 66.7578C163.969 66.9661 163.889 67.2266 163.889 67.5391C163.889 67.9922 164.053 68.3385 164.381 68.5781C164.714 68.8125 165.136 68.9297 165.646 68.9297ZM177.361 64.0625V71H174.033V59H177.205V61.1172H177.346C177.611 60.4193 178.057 59.8672 178.682 59.4609C179.307 59.0495 180.064 58.8438 180.955 58.8438C181.788 58.8438 182.515 59.026 183.135 59.3906C183.755 59.7552 184.236 60.276 184.58 60.9531C184.924 61.625 185.096 62.4271 185.096 63.3594V71H181.768V63.9531C181.773 63.2187 181.585 62.6458 181.205 62.2344C180.825 61.8177 180.301 61.6094 179.635 61.6094C179.187 61.6094 178.791 61.7057 178.447 61.8984C178.109 62.0911 177.843 62.3724 177.65 62.7422C177.463 63.1068 177.367 63.5469 177.361 64.0625ZM192.141 71.1953C191.229 71.1953 190.404 70.9609 189.664 70.4922C188.93 70.0182 188.346 69.3229 187.914 68.4062C187.487 67.4844 187.273 66.3542 187.273 65.0156C187.273 63.6406 187.495 62.4974 187.938 61.5859C188.38 60.6693 188.969 59.9844 189.703 59.5313C190.443 59.0729 191.253 58.8438 192.133 58.8438C192.805 58.8438 193.365 58.9583 193.813 59.1875C194.266 59.4115 194.63 59.6927 194.906 60.0312C195.188 60.3646 195.401 60.6927 195.547 61.0156H195.648V55H198.969V71H195.688V69.0781H195.547C195.391 69.4115 195.169 69.7422 194.883 70.0703C194.602 70.3932 194.234 70.6615 193.781 70.875C193.333 71.0885 192.786 71.1953 192.141 71.1953ZM193.195 68.5469C193.732 68.5469 194.185 68.401 194.555 68.1094C194.93 67.8125 195.216 67.3984 195.414 66.8672C195.617 66.3359 195.719 65.7135 195.719 65C195.719 64.2865 195.62 63.6667 195.422 63.1406C195.224 62.6146 194.938 62.2083 194.563 61.9219C194.188 61.6354 193.732 61.4922 193.195 61.4922C192.648 61.4922 192.188 61.6406 191.813 61.9375C191.438 62.2344 191.154 62.6458 190.961 63.1719C190.768 63.6979 190.672 64.3073 190.672 65C190.672 65.6979 190.768 66.3151 190.961 66.8516C191.159 67.3828 191.443 67.7995 191.813 68.1016C192.188 68.3984 192.648 68.5469 193.195 68.5469ZM212.531 71H206.859V55H212.578C214.188 55 215.573 55.3203 216.734 55.9609C217.896 56.5964 218.789 57.5104 219.414 58.7031C220.044 59.8958 220.359 61.3229 220.359 62.9844C220.359 64.651 220.044 66.0833 219.414 67.2812C218.789 68.4792 217.891 69.3984 216.719 70.0391C215.552 70.6797 214.156 71 212.531 71ZM210.242 68.1016H212.391C213.391 68.1016 214.232 67.9245 214.914 67.5703C215.602 67.2109 216.117 66.6562 216.461 65.9062C216.81 65.151 216.984 64.1771 216.984 62.9844C216.984 61.8021 216.81 60.8359 216.461 60.0859C216.117 59.3359 215.604 58.7839 214.922 58.4297C214.24 58.0755 213.398 57.8984 212.398 57.8984H210.242V68.1016ZM226.225 71.2266C225.459 71.2266 224.777 71.0938 224.178 70.8281C223.579 70.5573 223.105 70.1589 222.756 69.6328C222.412 69.1016 222.24 68.4401 222.24 67.6484C222.24 66.9818 222.363 66.4219 222.607 65.9687C222.852 65.5156 223.186 65.151 223.607 64.875C224.029 64.599 224.508 64.3906 225.045 64.25C225.587 64.1094 226.154 64.0104 226.748 63.9531C227.446 63.8802 228.008 63.8125 228.436 63.75C228.863 63.6823 229.173 63.5833 229.365 63.4531C229.558 63.3229 229.654 63.1302 229.654 62.875V62.8281C229.654 62.3333 229.498 61.9505 229.186 61.6797C228.878 61.4089 228.441 61.2734 227.873 61.2734C227.274 61.2734 226.798 61.4062 226.443 61.6719C226.089 61.9323 225.855 62.2604 225.74 62.6562L222.662 62.4062C222.818 61.6771 223.126 61.0469 223.584 60.5156C224.042 59.9792 224.633 59.5677 225.357 59.2812C226.087 58.9896 226.93 58.8438 227.889 58.8438C228.555 58.8438 229.193 58.9219 229.803 59.0781C230.417 59.2344 230.962 59.4766 231.436 59.8047C231.915 60.1328 232.292 60.5547 232.568 61.0703C232.844 61.5807 232.982 62.1927 232.982 62.9062V71H229.826V69.3359H229.732C229.54 69.7109 229.282 70.0417 228.959 70.3281C228.636 70.6094 228.248 70.8307 227.795 70.9922C227.342 71.1484 226.818 71.2266 226.225 71.2266ZM227.178 68.9297C227.667 68.9297 228.1 68.8333 228.475 68.6406C228.85 68.4427 229.144 68.1771 229.357 67.8438C229.571 67.5104 229.678 67.1328 229.678 66.7109V65.4375C229.574 65.5052 229.43 65.5677 229.248 65.625C229.071 65.6771 228.87 65.7266 228.646 65.7734C228.423 65.8151 228.199 65.8542 227.975 65.8906C227.751 65.9219 227.548 65.9505 227.365 65.9766C226.975 66.0339 226.633 66.125 226.342 66.25C226.05 66.375 225.824 66.5443 225.662 66.7578C225.501 66.9661 225.42 67.2266 225.42 67.5391C225.42 67.9922 225.584 68.3385 225.912 68.5781C226.245 68.8125 226.667 68.9297 227.178 68.9297ZM241.947 59V61.5H234.721V59H241.947ZM236.361 56.125H239.689V67.3125C239.689 67.6198 239.736 67.8594 239.83 68.0312C239.924 68.1979 240.054 68.3151 240.221 68.3828C240.393 68.4505 240.59 68.4844 240.814 68.4844C240.971 68.4844 241.127 68.4714 241.283 68.4453C241.439 68.4141 241.559 68.3906 241.643 68.375L242.166 70.8516C241.999 70.9036 241.765 70.9635 241.463 71.0313C241.161 71.1042 240.794 71.1484 240.361 71.1641C239.559 71.1953 238.856 71.0885 238.252 70.8437C237.653 70.599 237.187 70.2187 236.854 69.7031C236.52 69.1875 236.356 68.5365 236.361 67.75V56.125ZM247.537 71.2266C246.771 71.2266 246.089 71.0938 245.49 70.8281C244.891 70.5573 244.417 70.1589 244.068 69.6328C243.725 69.1016 243.553 68.4401 243.553 67.6484C243.553 66.9818 243.675 66.4219 243.92 65.9687C244.165 65.5156 244.498 65.151 244.92 64.875C245.342 64.599 245.821 64.3906 246.357 64.25C246.899 64.1094 247.467 64.0104 248.061 63.9531C248.758 63.8802 249.321 63.8125 249.748 63.75C250.175 63.6823 250.485 63.5833 250.678 63.4531C250.87 63.3229 250.967 63.1302 250.967 62.875V62.8281C250.967 62.3333 250.811 61.9505 250.498 61.6797C250.191 61.4089 249.753 61.2734 249.186 61.2734C248.587 61.2734 248.11 61.4062 247.756 61.6719C247.402 61.9323 247.167 62.2604 247.053 62.6562L243.975 62.4062C244.131 61.6771 244.438 61.0469 244.896 60.5156C245.355 59.9792 245.946 59.5677 246.67 59.2812C247.399 58.9896 248.243 58.8438 249.201 58.8438C249.868 58.8438 250.506 58.9219 251.115 59.0781C251.73 59.2344 252.274 59.4766 252.748 59.8047C253.227 60.1328 253.605 60.5547 253.881 61.0703C254.157 61.5807 254.295 62.1927 254.295 62.9062V71H251.139V69.3359H251.045C250.852 69.7109 250.594 70.0417 250.271 70.3281C249.949 70.6094 249.561 70.8307 249.107 70.9922C248.654 71.1484 248.131 71.2266 247.537 71.2266ZM248.49 68.9297C248.98 68.9297 249.412 68.8333 249.787 68.6406C250.162 68.4427 250.456 68.1771 250.67 67.8438C250.883 67.5104 250.99 67.1328 250.99 66.7109V65.4375C250.886 65.5052 250.743 65.5677 250.561 65.625C250.383 65.6771 250.183 65.7266 249.959 65.7734C249.735 65.8151 249.511 65.8542 249.287 65.8906C249.063 65.9219 248.86 65.9505 248.678 65.9766C248.287 66.0339 247.946 66.125 247.654 66.25C247.363 66.375 247.136 66.5443 246.975 66.7578C246.813 66.9661 246.732 67.2266 246.732 67.5391C246.732 67.9922 246.896 68.3385 247.225 68.5781C247.558 68.8125 247.98 68.9297 248.49 68.9297ZM261.422 57.7891V55H274.562V57.7891H269.664V71H266.32V57.7891H261.422ZM277.344 75.5C276.922 75.5 276.526 75.4661 276.156 75.3984C275.792 75.3359 275.49 75.2552 275.25 75.1562L276 72.6719C276.391 72.7917 276.742 72.8568 277.055 72.8672C277.372 72.8776 277.646 72.8047 277.875 72.6484C278.109 72.4922 278.299 72.2266 278.445 71.8516L278.641 71.3438L274.336 59H277.836L280.32 67.8125H280.445L282.953 59H286.477L281.813 72.2969C281.589 72.9427 281.284 73.5052 280.898 73.9844C280.518 74.4688 280.036 74.8411 279.453 75.1016C278.87 75.3672 278.167 75.5 277.344 75.5ZM288.18 75.5V59H291.461V61.0156H291.609C291.755 60.6927 291.966 60.3646 292.242 60.0312C292.523 59.6927 292.888 59.4115 293.336 59.1875C293.789 58.9583 294.352 58.8438 295.023 58.8438C295.898 58.8438 296.706 59.0729 297.445 59.5313C298.185 59.9844 298.776 60.6693 299.219 61.5859C299.661 62.4974 299.883 63.6406 299.883 65.0156C299.883 66.3542 299.667 67.4844 299.234 68.4062C298.807 69.3229 298.224 70.0182 297.484 70.4922C296.75 70.9609 295.927 71.1953 295.016 71.1953C294.37 71.1953 293.82 71.0885 293.367 70.875C292.919 70.6615 292.552 70.3932 292.266 70.0703C291.979 69.7422 291.76 69.4115 291.609 69.0781H291.508V75.5H288.18ZM291.438 65C291.438 65.7135 291.536 66.3359 291.734 66.8672C291.932 67.3984 292.219 67.8125 292.594 68.1094C292.969 68.401 293.424 68.5469 293.961 68.5469C294.503 68.5469 294.961 68.3984 295.336 68.1016C295.711 67.7995 295.995 67.3828 296.188 66.8516C296.385 66.3151 296.484 65.6979 296.484 65C296.484 64.3073 296.388 63.6979 296.195 63.1719C296.003 62.6458 295.719 62.2344 295.344 61.9375C294.969 61.6406 294.508 61.4922 293.961 61.4922C293.419 61.4922 292.961 61.6354 292.586 61.9219C292.216 62.2083 291.932 62.6146 291.734 63.1406C291.536 63.6667 291.438 64.2865 291.438 65ZM307.57 71.2344C306.336 71.2344 305.273 70.9844 304.383 70.4844C303.497 69.9792 302.815 69.2656 302.336 68.3437C301.857 67.4167 301.617 66.3203 301.617 65.0547C301.617 63.8203 301.857 62.737 302.336 61.8047C302.815 60.8724 303.49 60.1458 304.359 59.625C305.234 59.1042 306.26 58.8438 307.438 58.8438C308.229 58.8438 308.966 58.9714 309.648 59.2266C310.336 59.4766 310.935 59.8542 311.445 60.3594C311.961 60.8646 312.362 61.5 312.648 62.2656C312.935 63.026 313.078 63.9167 313.078 64.9375V65.8516H302.945V63.7891H309.945C309.945 63.3099 309.841 62.8854 309.633 62.5156C309.424 62.1458 309.135 61.8568 308.766 61.6484C308.401 61.4349 307.977 61.3281 307.492 61.3281C306.987 61.3281 306.539 61.4453 306.148 61.6797C305.763 61.9089 305.461 62.2187 305.242 62.6094C305.023 62.9948 304.911 63.4245 304.906 63.8984V65.8594C304.906 66.4531 305.016 66.9661 305.234 67.3984C305.458 67.8307 305.773 68.1641 306.18 68.3984C306.586 68.6328 307.068 68.75 307.625 68.75C307.995 68.75 308.333 68.6979 308.641 68.5938C308.948 68.4896 309.211 68.3333 309.43 68.125C309.648 67.9167 309.815 67.6615 309.93 67.3594L313.008 67.5625C312.852 68.3021 312.531 68.9479 312.047 69.5C311.568 70.0469 310.948 70.474 310.188 70.7813C309.432 71.0833 308.56 71.2344 307.57 71.2344ZM325.234 62.4219L322.188 62.6094C322.135 62.349 322.023 62.1146 321.852 61.9062C321.68 61.6927 321.453 61.5234 321.172 61.3984C320.896 61.2682 320.565 61.2031 320.18 61.2031C319.664 61.2031 319.229 61.3125 318.875 61.5312C318.521 61.7448 318.344 62.0312 318.344 62.3906C318.344 62.6771 318.458 62.9193 318.688 63.1172C318.917 63.3151 319.31 63.474 319.867 63.5937L322.039 64.0312C323.206 64.2708 324.076 64.6562 324.648 65.1875C325.221 65.7187 325.508 66.4167 325.508 67.2812C325.508 68.0677 325.276 68.7578 324.813 69.3516C324.354 69.9453 323.724 70.4089 322.922 70.7422C322.125 71.0703 321.206 71.2344 320.164 71.2344C318.576 71.2344 317.31 70.9036 316.367 70.2422C315.43 69.5755 314.88 68.6693 314.719 67.5234L317.992 67.3516C318.091 67.8359 318.331 68.2057 318.711 68.4609C319.091 68.7109 319.578 68.8359 320.172 68.8359C320.755 68.8359 321.224 68.724 321.578 68.5C321.938 68.2708 322.12 67.9766 322.125 67.6172C322.12 67.3151 321.992 67.0677 321.742 66.875C321.492 66.6771 321.107 66.526 320.586 66.4219L318.508 66.0078C317.336 65.7734 316.464 65.3672 315.891 64.7891C315.323 64.2109 315.039 63.474 315.039 62.5781C315.039 61.8073 315.247 61.1432 315.664 60.5859C316.086 60.0286 316.677 59.599 317.438 59.2969C318.203 58.9948 319.099 58.8438 320.125 58.8438C321.641 58.8438 322.833 59.1641 323.703 59.8047C324.578 60.4453 325.089 61.3177 325.234 62.4219Z" fill="white"/>
<path d="M60.7 90.418V103H59.44V90.418H60.7ZM62.9773 98.068C62.9773 97.06 63.1813 96.178 63.5893 95.422C63.9973 94.654 64.5553 94.066 65.2633 93.658C65.9833 93.238 66.7933 93.028 67.6933 93.028C68.5573 93.028 69.3373 93.238 70.0333 93.658C70.7293 94.078 71.2393 94.624 71.5633 95.296V89.68H72.8233V103H71.5633V100.804C71.2633 101.488 70.7713 102.052 70.0873 102.496C69.4033 102.928 68.5993 103.144 67.6753 103.144C66.7753 103.144 65.9653 102.934 65.2453 102.514C64.5373 102.094 63.9793 101.5 63.5713 100.732C63.1753 99.964 62.9773 99.076 62.9773 98.068ZM71.5633 98.086C71.5633 97.294 71.4013 96.598 71.0773 95.998C70.7533 95.398 70.3093 94.936 69.7453 94.612C69.1933 94.288 68.5813 94.126 67.9093 94.126C67.2133 94.126 66.5893 94.282 66.0373 94.594C65.4853 94.906 65.0473 95.362 64.7233 95.962C64.4113 96.55 64.2553 97.252 64.2553 98.068C64.2553 98.872 64.4113 99.58 64.7233 100.192C65.0473 100.792 65.4853 101.254 66.0373 101.578C66.5893 101.89 67.2133 102.046 67.9093 102.046C68.5813 102.046 69.1933 101.884 69.7453 101.56C70.3093 101.236 70.7533 100.774 71.0773 100.174C71.4013 99.574 71.5633 98.878 71.5633 98.086ZM84.5918 97.582C84.5918 98.014 84.5798 98.344 84.5558 98.572H76.4018C76.4378 99.316 76.6178 99.952 76.9418 100.48C77.2658 101.008 77.6918 101.41 78.2198 101.686C78.7478 101.95 79.3238 102.082 79.9478 102.082C80.7638 102.082 81.4478 101.884 81.9998 101.488C82.5638 101.092 82.9358 100.558 83.1158 99.886H84.4478C84.2078 100.846 83.6918 101.632 82.8998 102.244C82.1198 102.844 81.1358 103.144 79.9478 103.144C79.0238 103.144 78.1958 102.94 77.4638 102.532C76.7318 102.112 76.1558 101.524 75.7358 100.768C75.3278 100 75.1238 99.106 75.1238 98.086C75.1238 97.066 75.3278 96.172 75.7358 95.404C76.1438 94.636 76.7138 94.048 77.4458 93.64C78.1778 93.232 79.0118 93.028 79.9478 93.028C80.8838 93.028 81.6998 93.232 82.3958 93.64C83.1038 94.048 83.6438 94.6 84.0158 95.296C84.3998 95.98 84.5918 96.742 84.5918 97.582ZM83.3138 97.546C83.3258 96.814 83.1758 96.19 82.8638 95.674C82.5638 95.158 82.1498 94.768 81.6218 94.504C81.0938 94.24 80.5178 94.108 79.8938 94.108C78.9578 94.108 78.1598 94.408 77.4998 95.008C76.8398 95.608 76.4738 96.454 76.4018 97.546H83.3138ZM91.505 92.992C92.681 92.992 93.641 93.358 94.385 94.09C95.129 94.81 95.501 95.86 95.501 97.24V103H94.259V97.384C94.259 96.316 93.989 95.5 93.449 94.936C92.921 94.372 92.195 94.09 91.271 94.09C90.323 94.09 89.567 94.39 89.003 94.99C88.439 95.59 88.157 96.472 88.157 97.636V103H86.897V93.172H88.157V94.846C88.469 94.246 88.919 93.79 89.507 93.478C90.095 93.154 90.761 92.992 91.505 92.992ZM99.9257 94.234V100.336C99.9257 100.936 100.04 101.35 100.268 101.578C100.496 101.806 100.898 101.92 101.474 101.92H102.626V103H101.276C100.388 103 99.7277 102.796 99.2957 102.388C98.8637 101.968 98.6477 101.284 98.6477 100.336V94.234H97.2797V93.172H98.6477V90.706H99.9257V93.172H102.626V94.234H99.9257ZM105.334 91.318C105.082 91.318 104.866 91.228 104.686 91.048C104.506 90.868 104.416 90.646 104.416 90.382C104.416 90.118 104.506 89.902 104.686 89.734C104.866 89.554 105.082 89.464 105.334 89.464C105.586 89.464 105.802 89.554 105.982 89.734C106.162 89.902 106.252 90.118 106.252 90.382C106.252 90.646 106.162 90.868 105.982 91.048C105.802 91.228 105.586 91.318 105.334 91.318ZM105.964 93.172V103H104.704V93.172H105.964ZM112.687 94.234H110.401V103H109.141V94.234H107.773V93.172H109.141V92.488C109.141 91.42 109.411 90.634 109.951 90.13C110.503 89.626 111.391 89.374 112.615 89.374V90.454C111.799 90.454 111.223 90.61 110.887 90.922C110.563 91.234 110.401 91.756 110.401 92.488V93.172H112.687V94.234ZM122.77 93.172L116.938 107.626H115.624L117.532 102.946L113.5 93.172H114.886L118.234 101.56L121.474 93.172H122.77ZM128.843 98.068C128.843 97.06 129.041 96.178 129.437 95.422C129.845 94.654 130.403 94.066 131.111 93.658C131.831 93.238 132.641 93.028 133.541 93.028C134.477 93.028 135.281 93.244 135.953 93.676C136.637 94.108 137.129 94.66 137.429 95.332V93.172H138.689V103H137.429V100.822C137.117 101.494 136.619 102.052 135.935 102.496C135.263 102.928 134.459 103.144 133.523 103.144C132.635 103.144 131.831 102.934 131.111 102.514C130.403 102.094 129.845 101.5 129.437 100.732C129.041 99.964 128.843 99.076 128.843 98.068ZM137.429 98.086C137.429 97.294 137.267 96.598 136.943 95.998C136.619 95.398 136.175 94.936 135.611 94.612C135.059 94.288 134.447 94.126 133.775 94.126C133.079 94.126 132.455 94.282 131.903 94.594C131.351 94.906 130.913 95.362 130.589 95.962C130.277 96.55 130.121 97.252 130.121 98.068C130.121 98.872 130.277 99.58 130.589 100.192C130.913 100.792 131.351 101.254 131.903 101.578C132.455 101.89 133.079 102.046 133.775 102.046C134.447 102.046 135.059 101.884 135.611 101.56C136.175 101.236 136.619 100.774 136.943 100.174C137.267 99.574 137.429 98.878 137.429 98.086ZM146.173 92.992C147.349 92.992 148.309 93.358 149.053 94.09C149.797 94.81 150.169 95.86 150.169 97.24V103H148.927V97.384C148.927 96.316 148.657 95.5 148.117 94.936C147.589 94.372 146.863 94.09 145.939 94.09C144.991 94.09 144.235 94.39 143.671 94.99C143.107 95.59 142.825 96.472 142.825 97.636V103H141.565V93.172H142.825V94.846C143.137 94.246 143.587 93.79 144.175 93.478C144.763 93.154 145.429 92.992 146.173 92.992ZM152.38 98.068C152.38 97.06 152.584 96.178 152.992 95.422C153.4 94.654 153.958 94.066 154.666 93.658C155.386 93.238 156.196 93.028 157.096 93.028C157.96 93.028 158.74 93.238 159.436 93.658C160.132 94.078 160.642 94.624 160.966 95.296V89.68H162.226V103H160.966V100.804C160.666 101.488 160.174 102.052 159.49 102.496C158.806 102.928 158.002 103.144 157.078 103.144C156.178 103.144 155.368 102.934 154.648 102.514C153.94 102.094 153.382 101.5 152.974 100.732C152.578 99.964 152.38 99.076 152.38 98.068ZM160.966 98.086C160.966 97.294 160.804 96.598 160.48 95.998C160.156 95.398 159.712 94.936 159.148 94.612C158.596 94.288 157.984 94.126 157.312 94.126C156.616 94.126 155.992 94.282 155.44 94.594C154.888 94.906 154.45 95.362 154.126 95.962C153.814 96.55 153.658 97.252 153.658 98.068C153.658 98.872 153.814 99.58 154.126 100.192C154.45 100.792 154.888 101.254 155.44 101.578C155.992 101.89 156.616 102.046 157.312 102.046C157.984 102.046 158.596 101.884 159.148 101.56C159.712 101.236 160.156 100.774 160.48 100.174C160.804 99.574 160.966 98.878 160.966 98.086ZM171.284 95.332C171.596 94.672 172.088 94.126 172.76 93.694C173.444 93.25 174.254 93.028 175.19 93.028C176.078 93.028 176.876 93.238 177.584 93.658C178.304 94.066 178.862 94.654 179.258 95.422C179.666 96.178 179.87 97.06 179.87 98.068C179.87 99.076 179.666 99.964 179.258 100.732C178.862 101.5 178.304 102.094 177.584 102.514C176.876 102.934 176.078 103.144 175.19 103.144C174.266 103.144 173.462 102.928 172.778 102.496C172.094 102.052 171.596 101.5 171.284 100.84V107.644H170.042V93.172H171.284V95.332ZM178.592 98.068C178.592 97.252 178.43 96.55 178.106 95.962C177.794 95.362 177.362 94.906 176.81 94.594C176.258 94.282 175.634 94.126 174.938 94.126C174.266 94.126 173.648 94.288 173.084 94.612C172.532 94.936 172.094 95.398 171.77 95.998C171.446 96.598 171.284 97.294 171.284 98.086C171.284 98.878 171.446 99.574 171.77 100.174C172.094 100.774 172.532 101.236 173.084 101.56C173.648 101.884 174.266 102.046 174.938 102.046C175.634 102.046 176.258 101.89 176.81 101.578C177.362 101.254 177.794 100.792 178.106 100.192C178.43 99.58 178.592 98.872 178.592 98.068ZM182.818 91.318C182.566 91.318 182.35 91.228 182.17 91.048C181.99 90.868 181.9 90.646 181.9 90.382C181.9 90.118 181.99 89.902 182.17 89.734C182.35 89.554 182.566 89.464 182.818 89.464C183.07 89.464 183.286 89.554 183.466 89.734C183.646 89.902 183.736 90.118 183.736 90.382C183.736 90.646 183.646 90.868 183.466 91.048C183.286 91.228 183.07 91.318 182.818 91.318ZM183.448 93.172V103H182.188V93.172H183.448ZM185.725 98.086C185.725 97.066 185.929 96.178 186.337 95.422C186.745 94.654 187.309 94.066 188.029 93.658C188.749 93.238 189.571 93.028 190.495 93.028C191.707 93.028 192.703 93.328 193.483 93.928C194.275 94.528 194.785 95.344 195.013 96.376H193.663C193.495 95.668 193.129 95.116 192.565 94.72C192.013 94.312 191.323 94.108 190.495 94.108C189.835 94.108 189.241 94.258 188.713 94.558C188.185 94.858 187.765 95.308 187.453 95.908C187.153 96.496 187.003 97.222 187.003 98.086C187.003 98.95 187.153 99.682 187.453 100.282C187.765 100.882 188.185 101.332 188.713 101.632C189.241 101.932 189.835 102.082 190.495 102.082C191.323 102.082 192.013 101.884 192.565 101.488C193.129 101.08 193.495 100.516 193.663 99.796H195.013C194.785 100.804 194.275 101.614 193.483 102.226C192.691 102.838 191.695 103.144 190.495 103.144C189.571 103.144 188.749 102.94 188.029 102.532C187.309 102.112 186.745 101.524 186.337 100.768C185.929 100 185.725 99.106 185.725 98.086ZM202.65 103L198.6 98.59V103H197.34V89.68H198.6V97.564L202.56 93.172H204.324L199.662 98.068L204.36 103H202.65ZM214.312 103.144C213.184 103.144 212.26 102.886 211.54 102.37C210.832 101.842 210.436 101.128 210.352 100.228H211.648C211.708 100.78 211.966 101.23 212.422 101.578C212.89 101.914 213.514 102.082 214.294 102.082C214.978 102.082 215.512 101.92 215.896 101.596C216.292 101.272 216.49 100.87 216.49 100.39C216.49 100.054 216.382 99.778 216.166 99.562C215.95 99.346 215.674 99.178 215.338 99.058C215.014 98.926 214.57 98.788 214.006 98.644C213.274 98.452 212.68 98.26 212.224 98.068C211.768 97.876 211.378 97.594 211.054 97.222C210.742 96.838 210.586 96.328 210.586 95.692C210.586 95.212 210.73 94.768 211.018 94.36C211.306 93.952 211.714 93.628 212.242 93.388C212.77 93.148 213.37 93.028 214.042 93.028C215.098 93.028 215.95 93.298 216.598 93.838C217.246 94.366 217.594 95.098 217.642 96.034H216.382C216.346 95.458 216.118 94.996 215.698 94.648C215.29 94.288 214.726 94.108 214.006 94.108C213.37 94.108 212.854 94.258 212.458 94.558C212.062 94.858 211.864 95.23 211.864 95.674C211.864 96.058 211.978 96.376 212.206 96.628C212.446 96.868 212.74 97.06 213.088 97.204C213.436 97.336 213.904 97.486 214.492 97.654C215.2 97.846 215.764 98.032 216.184 98.212C216.604 98.392 216.964 98.656 217.264 99.004C217.564 99.352 217.72 99.814 217.732 100.39C217.732 100.918 217.588 101.392 217.3 101.812C217.012 102.22 216.61 102.544 216.094 102.784C215.578 103.024 214.984 103.144 214.312 103.144ZM219.528 98.068C219.528 97.06 219.726 96.178 220.122 95.422C220.53 94.654 221.088 94.066 221.796 93.658C222.516 93.238 223.326 93.028 224.226 93.028C225.162 93.028 225.966 93.244 226.638 93.676C227.322 94.108 227.814 94.66 228.114 95.332V93.172H229.374V103H228.114V100.822C227.802 101.494 227.304 102.052 226.62 102.496C225.948 102.928 225.144 103.144 224.208 103.144C223.32 103.144 222.516 102.934 221.796 102.514C221.088 102.094 220.53 101.5 220.122 100.732C219.726 99.964 219.528 99.076 219.528 98.068ZM228.114 98.086C228.114 97.294 227.952 96.598 227.628 95.998C227.304 95.398 226.86 94.936 226.296 94.612C225.744 94.288 225.132 94.126 224.46 94.126C223.764 94.126 223.14 94.282 222.588 94.594C222.036 94.906 221.598 95.362 221.274 95.962C220.962 96.55 220.806 97.252 220.806 98.068C220.806 98.872 220.962 99.58 221.274 100.192C221.598 100.792 222.036 101.254 222.588 101.578C223.14 101.89 223.764 102.046 224.46 102.046C225.132 102.046 225.744 101.884 226.296 101.56C226.86 101.236 227.304 100.774 227.628 100.174C227.952 99.574 228.114 98.878 228.114 98.086ZM236.121 94.234H233.835V103H232.575V94.234H231.207V93.172H232.575V92.488C232.575 91.42 232.845 90.634 233.385 90.13C233.937 89.626 234.825 89.374 236.049 89.374V90.454C235.233 90.454 234.657 90.61 234.321 90.922C233.997 91.234 233.835 91.756 233.835 92.488V93.172H236.121V94.234ZM246.996 97.582C246.996 98.014 246.984 98.344 246.96 98.572H238.806C238.842 99.316 239.022 99.952 239.346 100.48C239.67 101.008 240.096 101.41 240.624 101.686C241.152 101.95 241.728 102.082 242.352 102.082C243.168 102.082 243.852 101.884 244.404 101.488C244.968 101.092 245.34 100.558 245.52 99.886H246.852C246.612 100.846 246.096 101.632 245.304 102.244C244.524 102.844 243.54 103.144 242.352 103.144C241.428 103.144 240.6 102.94 239.868 102.532C239.136 102.112 238.56 101.524 238.14 100.768C237.732 100 237.528 99.106 237.528 98.086C237.528 97.066 237.732 96.172 238.14 95.404C238.548 94.636 239.118 94.048 239.85 93.64C240.582 93.232 241.416 93.028 242.352 93.028C243.288 93.028 244.104 93.232 244.8 93.64C245.508 94.048 246.048 94.6 246.42 95.296C246.804 95.98 246.996 96.742 246.996 97.582ZM245.718 97.546C245.73 96.814 245.58 96.19 245.268 95.674C244.968 95.158 244.554 94.768 244.026 94.504C243.498 94.24 242.922 94.108 242.298 94.108C241.362 94.108 240.564 94.408 239.904 95.008C239.244 95.608 238.878 96.454 238.806 97.546H245.718ZM267.201 93.172L264.123 103H262.863L260.145 94.756L257.427 103H256.149L253.071 93.172H254.349L256.797 101.722L259.551 93.172H260.811L263.529 101.74L265.959 93.172H267.201ZM277.811 97.582C277.811 98.014 277.799 98.344 277.775 98.572H269.621C269.657 99.316 269.837 99.952 270.161 100.48C270.485 101.008 270.911 101.41 271.439 101.686C271.967 101.95 272.543 102.082 273.167 102.082C273.983 102.082 274.667 101.884 275.219 101.488C275.783 101.092 276.155 100.558 276.335 99.886H277.667C277.427 100.846 276.911 101.632 276.119 102.244C275.339 102.844 274.355 103.144 273.167 103.144C272.243 103.144 271.415 102.94 270.683 102.532C269.951 102.112 269.375 101.524 268.955 100.768C268.547 100 268.343 99.106 268.343 98.086C268.343 97.066 268.547 96.172 268.955 95.404C269.363 94.636 269.933 94.048 270.665 93.64C271.397 93.232 272.231 93.028 273.167 93.028C274.103 93.028 274.919 93.232 275.615 93.64C276.323 94.048 276.863 94.6 277.235 95.296C277.619 95.98 277.811 96.742 277.811 97.582ZM276.533 97.546C276.545 96.814 276.395 96.19 276.083 95.674C275.783 95.158 275.369 94.768 274.841 94.504C274.313 94.24 273.737 94.108 273.113 94.108C272.177 94.108 271.379 94.408 270.719 95.008C270.059 95.608 269.693 96.454 269.621 97.546H276.533ZM281.358 95.35C281.682 94.666 282.18 94.108 282.852 93.676C283.536 93.244 284.34 93.028 285.264 93.028C286.164 93.028 286.968 93.238 287.676 93.658C288.384 94.066 288.936 94.654 289.332 95.422C289.74 96.178 289.944 97.06 289.944 98.068C289.944 99.076 289.74 99.964 289.332 100.732C288.936 101.5 288.378 102.094 287.658 102.514C286.95 102.934 286.152 103.144 285.264 103.144C284.328 103.144 283.518 102.934 282.834 102.514C282.162 102.082 281.67 101.524 281.358 100.84V103H280.116V89.68H281.358V95.35ZM288.666 98.068C288.666 97.252 288.504 96.55 288.18 95.962C287.868 95.362 287.436 94.906 286.884 94.594C286.332 94.282 285.708 94.126 285.012 94.126C284.34 94.126 283.722 94.288 283.158 94.612C282.606 94.936 282.168 95.398 281.844 95.998C281.52 96.598 281.358 97.294 281.358 98.086C281.358 98.878 281.52 99.574 281.844 100.174C282.168 100.774 282.606 101.236 283.158 101.56C283.722 101.884 284.34 102.046 285.012 102.046C285.708 102.046 286.332 101.89 286.884 101.578C287.436 101.254 287.868 100.792 288.18 100.192C288.504 99.58 288.666 98.872 288.666 98.068ZM295.646 103.144C294.518 103.144 293.594 102.886 292.874 102.37C292.166 101.842 291.77 101.128 291.686 100.228H292.982C293.042 100.78 293.3 101.23 293.756 101.578C294.224 101.914 294.848 102.082 295.628 102.082C296.312 102.082 296.846 101.92 297.23 101.596C297.626 101.272 297.824 100.87 297.824 100.39C297.824 100.054 297.716 99.778 297.5 99.562C297.284 99.346 297.008 99.178 296.672 99.058C296.348 98.926 295.904 98.788 295.34 98.644C294.608 98.452 294.014 98.26 293.558 98.068C293.102 97.876 292.712 97.594 292.388 97.222C292.076 96.838 291.92 96.328 291.92 95.692C291.92 95.212 292.064 94.768 292.352 94.36C292.64 93.952 293.048 93.628 293.576 93.388C294.104 93.148 294.704 93.028 295.376 93.028C296.432 93.028 297.284 93.298 297.932 93.838C298.58 94.366 298.928 95.098 298.976 96.034H297.716C297.68 95.458 297.452 94.996 297.032 94.648C296.624 94.288 296.06 94.108 295.34 94.108C294.704 94.108 294.188 94.258 293.792 94.558C293.396 94.858 293.198 95.23 293.198 95.674C293.198 96.058 293.312 96.376 293.54 96.628C293.78 96.868 294.074 97.06 294.422 97.204C294.77 97.336 295.238 97.486 295.826 97.654C296.534 97.846 297.098 98.032 297.518 98.212C297.938 98.392 298.298 98.656 298.598 99.004C298.898 99.352 299.054 99.814 299.066 100.39C299.066 100.918 298.922 101.392 298.634 101.812C298.346 102.22 297.944 102.544 297.428 102.784C296.912 103.024 296.318 103.144 295.646 103.144ZM302.068 91.318C301.816 91.318 301.6 91.228 301.42 91.048C301.24 90.868 301.15 90.646 301.15 90.382C301.15 90.118 301.24 89.902 301.42 89.734C301.6 89.554 301.816 89.464 302.068 89.464C302.32 89.464 302.536 89.554 302.716 89.734C302.896 89.902 302.986 90.118 302.986 90.382C302.986 90.646 302.896 90.868 302.716 91.048C302.536 91.228 302.32 91.318 302.068 91.318ZM302.698 93.172V103H301.438V93.172H302.698ZM307.189 94.234V100.336C307.189 100.936 307.303 101.35 307.531 101.578C307.759 101.806 308.161 101.92 308.737 101.92H309.889V103H308.539C307.651 103 306.991 102.796 306.559 102.388C306.127 101.968 305.911 101.284 305.911 100.336V94.234H304.543V93.172H305.911V90.706H307.189V93.172H309.889V94.234H307.189ZM320.859 97.582C320.859 98.014 320.847 98.344 320.823 98.572H312.669C312.705 99.316 312.885 99.952 313.209 100.48C313.533 101.008 313.959 101.41 314.487 101.686C315.015 101.95 315.591 102.082 316.215 102.082C317.031 102.082 317.715 101.884 318.267 101.488C318.831 101.092 319.203 100.558 319.383 99.886H320.715C320.475 100.846 319.959 101.632 319.167 102.244C318.387 102.844 317.403 103.144 316.215 103.144C315.291 103.144 314.463 102.94 313.731 102.532C312.999 102.112 312.423 101.524 312.003 100.768C311.595 100 311.391 99.106 311.391 98.086C311.391 97.066 311.595 96.172 312.003 95.404C312.411 94.636 312.981 94.048 313.713 93.64C314.445 93.232 315.279 93.028 316.215 93.028C317.151 93.028 317.967 93.232 318.663 93.64C319.371 94.048 319.911 94.6 320.283 95.296C320.667 95.98 320.859 96.742 320.859 97.582ZM319.581 97.546C319.593 96.814 319.443 96.19 319.131 95.674C318.831 95.158 318.417 94.768 317.889 94.504C317.361 94.24 316.785 94.108 316.161 94.108C315.225 94.108 314.427 94.408 313.767 95.008C313.107 95.608 312.741 96.454 312.669 97.546H319.581ZM326.549 103.144C325.421 103.144 324.497 102.886 323.777 102.37C323.069 101.842 322.673 101.128 322.589 100.228H323.885C323.945 100.78 324.203 101.23 324.659 101.578C325.127 101.914 325.751 102.082 326.531 102.082C327.215 102.082 327.749 101.92 328.133 101.596C328.529 101.272 328.727 100.87 328.727 100.39C328.727 100.054 328.619 99.778 328.403 99.562C328.187 99.346 327.911 99.178 327.575 99.058C327.251 98.926 326.807 98.788 326.243 98.644C325.511 98.452 324.917 98.26 324.461 98.068C324.005 97.876 323.615 97.594 323.291 97.222C322.979 96.838 322.823 96.328 322.823 95.692C322.823 95.212 322.967 94.768 323.255 94.36C323.543 93.952 323.951 93.628 324.479 93.388C325.007 93.148 325.607 93.028 326.279 93.028C327.335 93.028 328.187 93.298 328.835 93.838C329.483 94.366 329.831 95.098 329.879 96.034H328.619C328.583 95.458 328.355 94.996 327.935 94.648C327.527 94.288 326.963 94.108 326.243 94.108C325.607 94.108 325.091 94.258 324.695 94.558C324.299 94.858 324.101 95.23 324.101 95.674C324.101 96.058 324.215 96.376 324.443 96.628C324.683 96.868 324.977 97.06 325.325 97.204C325.673 97.336 326.141 97.486 326.729 97.654C327.437 97.846 328.001 98.032 328.421 98.212C328.841 98.392 329.201 98.656 329.501 99.004C329.801 99.352 329.957 99.814 329.969 100.39C329.969 100.918 329.825 101.392 329.537 101.812C329.249 102.22 328.847 102.544 328.331 102.784C327.815 103.024 327.221 103.144 326.549 103.144ZM63.31 123.234H61.024V132H59.764V123.234H58.396V122.172H59.764V121.488C59.764 120.42 60.034 119.634 60.574 119.13C61.126 118.626 62.014 118.374 63.238 118.374V119.454C62.422 119.454 61.846 119.61 61.51 119.922C61.186 120.234 61.024 120.756 61.024 121.488V122.172H63.31V123.234ZM66.5535 123.918C66.8295 123.306 67.2495 122.832 67.8135 122.496C68.3895 122.16 69.0915 121.992 69.9195 121.992V123.306H69.5775C68.6655 123.306 67.9335 123.552 67.3815 124.044C66.8295 124.536 66.5535 125.358 66.5535 126.51V132H65.2935V122.172H66.5535V123.918ZM76.117 132.144C75.193 132.144 74.359 131.94 73.615 131.532C72.883 131.112 72.301 130.524 71.869 129.768C71.449 129 71.239 128.106 71.239 127.086C71.239 126.066 71.455 125.178 71.887 124.422C72.319 123.654 72.907 123.066 73.651 122.658C74.395 122.238 75.229 122.028 76.153 122.028C77.077 122.028 77.911 122.238 78.655 122.658C79.411 123.066 79.999 123.654 80.419 124.422C80.851 125.178 81.067 126.066 81.067 127.086C81.067 128.094 80.851 128.982 80.419 129.75C79.987 130.518 79.393 131.112 78.637 131.532C77.881 131.94 77.041 132.144 76.117 132.144ZM76.117 131.046C76.765 131.046 77.365 130.902 77.917 130.614C78.469 130.314 78.913 129.87 79.249 129.282C79.597 128.682 79.771 127.95 79.771 127.086C79.771 126.222 79.603 125.496 79.267 124.908C78.931 124.308 78.487 123.864 77.935 123.576C77.383 123.276 76.783 123.126 76.135 123.126C75.487 123.126 74.887 123.276 74.335 123.576C73.783 123.864 73.339 124.308 73.003 124.908C72.679 125.496 72.517 126.222 72.517 127.086C72.517 127.95 72.679 128.682 73.003 129.282C73.339 129.87 73.777 130.314 74.317 130.614C74.869 130.902 75.469 131.046 76.117 131.046ZM95.0638 121.992C96.2158 121.992 97.1518 122.358 97.8718 123.09C98.6038 123.81 98.9698 124.86 98.9698 126.24V132H97.7278V126.384C97.7278 125.316 97.4698 124.5 96.9538 123.936C96.4378 123.372 95.7358 123.09 94.8478 123.09C93.9238 123.09 93.1858 123.396 92.6338 124.008C92.0818 124.62 91.8058 125.508 91.8058 126.672V132H90.5638V126.384C90.5638 125.316 90.3058 124.5 89.7898 123.936C89.2738 123.372 88.5658 123.09 87.6658 123.09C86.7418 123.09 86.0038 123.396 85.4518 124.008C84.8998 124.62 84.6238 125.508 84.6238 126.672V132H83.3638V122.172H84.6238V123.864C84.9358 123.252 85.3798 122.79 85.9558 122.478C86.5318 122.154 87.1738 121.992 87.8818 121.992C88.7338 121.992 89.4778 122.196 90.1138 122.604C90.7618 123.012 91.2298 123.612 91.5178 124.404C91.7818 123.624 92.2318 123.03 92.8678 122.622C93.5158 122.202 94.2478 121.992 95.0638 121.992ZM110.092 132.144C108.964 132.144 108.04 131.886 107.32 131.37C106.612 130.842 106.216 130.128 106.132 129.228H107.428C107.488 129.78 107.746 130.23 108.202 130.578C108.67 130.914 109.294 131.082 110.074 131.082C110.758 131.082 111.292 130.92 111.676 130.596C112.072 130.272 112.27 129.87 112.27 129.39C112.27 129.054 112.162 128.778 111.946 128.562C111.73 128.346 111.454 128.178 111.118 128.058C110.794 127.926 110.35 127.788 109.786 127.644C109.054 127.452 108.46 127.26 108.004 127.068C107.548 126.876 107.158 126.594 106.834 126.222C106.522 125.838 106.366 125.328 106.366 124.692C106.366 124.212 106.51 123.768 106.798 123.36C107.086 122.952 107.494 122.628 108.022 122.388C108.55 122.148 109.15 122.028 109.822 122.028C110.878 122.028 111.73 122.298 112.378 122.838C113.026 123.366 113.374 124.098 113.422 125.034H112.162C112.126 124.458 111.898 123.996 111.478 123.648C111.07 123.288 110.506 123.108 109.786 123.108C109.15 123.108 108.634 123.258 108.238 123.558C107.842 123.858 107.644 124.23 107.644 124.674C107.644 125.058 107.758 125.376 107.986 125.628C108.226 125.868 108.52 126.06 108.868 126.204C109.216 126.336 109.684 126.486 110.272 126.654C110.98 126.846 111.544 127.032 111.964 127.212C112.384 127.392 112.744 127.656 113.044 128.004C113.344 128.352 113.5 128.814 113.512 129.39C113.512 129.918 113.368 130.392 113.08 130.812C112.792 131.22 112.39 131.544 111.874 131.784C111.358 132.024 110.764 132.144 110.092 132.144ZM115.307 127.086C115.307 126.066 115.511 125.178 115.919 124.422C116.327 123.654 116.891 123.066 117.611 122.658C118.331 122.238 119.153 122.028 120.077 122.028C121.289 122.028 122.285 122.328 123.065 122.928C123.857 123.528 124.367 124.344 124.595 125.376H123.245C123.077 124.668 122.711 124.116 122.147 123.72C121.595 123.312 120.905 123.108 120.077 123.108C119.417 123.108 118.823 123.258 118.295 123.558C117.767 123.858 117.347 124.308 117.035 124.908C116.735 125.496 116.585 126.222 116.585 127.086C116.585 127.95 116.735 128.682 117.035 129.282C117.347 129.882 117.767 130.332 118.295 130.632C118.823 130.932 119.417 131.082 120.077 131.082C120.905 131.082 121.595 130.884 122.147 130.488C122.711 130.08 123.077 129.516 123.245 128.796H124.595C124.367 129.804 123.857 130.614 123.065 131.226C122.273 131.838 121.277 132.144 120.077 132.144C119.153 132.144 118.331 131.94 117.611 131.532C116.891 131.112 116.327 130.524 115.919 129.768C115.511 129 115.307 128.106 115.307 127.086ZM128.182 123.918C128.458 123.306 128.878 122.832 129.442 122.496C130.018 122.16 130.72 121.992 131.548 121.992V123.306H131.206C130.294 123.306 129.562 123.552 129.01 124.044C128.458 124.536 128.182 125.358 128.182 126.51V132H126.922V122.172H128.182V123.918ZM142.336 126.582C142.336 127.014 142.324 127.344 142.3 127.572H134.146C134.182 128.316 134.362 128.952 134.686 129.48C135.01 130.008 135.436 130.41 135.964 130.686C136.492 130.95 137.068 131.082 137.692 131.082C138.508 131.082 139.192 130.884 139.744 130.488C140.308 130.092 140.68 129.558 140.86 128.886H142.192C141.952 129.846 141.436 130.632 140.644 131.244C139.864 131.844 138.88 132.144 137.692 132.144C136.768 132.144 135.94 131.94 135.208 131.532C134.476 131.112 133.9 130.524 133.48 129.768C133.072 129 132.868 128.106 132.868 127.086C132.868 126.066 133.072 125.172 133.48 124.404C133.888 123.636 134.458 123.048 135.19 122.64C135.922 122.232 136.756 122.028 137.692 122.028C138.628 122.028 139.444 122.232 140.14 122.64C140.848 123.048 141.388 123.6 141.76 124.296C142.144 124.98 142.336 125.742 142.336 126.582ZM141.058 126.546C141.07 125.814 140.92 125.19 140.608 124.674C140.308 124.158 139.894 123.768 139.366 123.504C138.838 123.24 138.262 123.108 137.638 123.108C136.702 123.108 135.904 123.408 135.244 124.008C134.584 124.608 134.218 125.454 134.146 126.546H141.058ZM153.533 126.582C153.533 127.014 153.521 127.344 153.497 127.572H145.343C145.379 128.316 145.559 128.952 145.883 129.48C146.207 130.008 146.633 130.41 147.161 130.686C147.689 130.95 148.265 131.082 148.889 131.082C149.705 131.082 150.389 130.884 150.941 130.488C151.505 130.092 151.877 129.558 152.057 128.886H153.389C153.149 129.846 152.633 130.632 151.841 131.244C151.061 131.844 150.077 132.144 148.889 132.144C147.965 132.144 147.137 131.94 146.405 131.532C145.673 131.112 145.097 130.524 144.677 129.768C144.269 129 144.065 128.106 144.065 127.086C144.065 126.066 144.269 125.172 144.677 124.404C145.085 123.636 145.655 123.048 146.387 122.64C147.119 122.232 147.953 122.028 148.889 122.028C149.825 122.028 150.641 122.232 151.337 122.64C152.045 123.048 152.585 123.6 152.957 124.296C153.341 124.98 153.533 125.742 153.533 126.582ZM152.255 126.546C152.267 125.814 152.117 125.19 151.805 124.674C151.505 124.158 151.091 123.768 150.563 123.504C150.035 123.24 149.459 123.108 148.835 123.108C147.899 123.108 147.101 123.408 146.441 124.008C145.781 124.608 145.415 125.454 145.343 126.546H152.255ZM160.446 121.992C161.622 121.992 162.582 122.358 163.326 123.09C164.07 123.81 164.442 124.86 164.442 126.24V132H163.2V126.384C163.2 125.316 162.93 124.5 162.39 123.936C161.862 123.372 161.136 123.09 160.212 123.09C159.264 123.09 158.508 123.39 157.944 123.99C157.38 124.59 157.098 125.472 157.098 126.636V132H155.838V122.172H157.098V123.846C157.41 123.246 157.86 122.79 158.448 122.478C159.036 122.154 159.702 121.992 160.446 121.992ZM170.613 132.144C169.485 132.144 168.561 131.886 167.841 131.37C167.133 130.842 166.737 130.128 166.653 129.228H167.949C168.009 129.78 168.267 130.23 168.723 130.578C169.191 130.914 169.815 131.082 170.595 131.082C171.279 131.082 171.813 130.92 172.197 130.596C172.593 130.272 172.791 129.87 172.791 129.39C172.791 129.054 172.683 128.778 172.467 128.562C172.251 128.346 171.975 128.178 171.639 128.058C171.315 127.926 170.871 127.788 170.307 127.644C169.575 127.452 168.981 127.26 168.525 127.068C168.069 126.876 167.679 126.594 167.355 126.222C167.043 125.838 166.887 125.328 166.887 124.692C166.887 124.212 167.031 123.768 167.319 123.36C167.607 122.952 168.015 122.628 168.543 122.388C169.071 122.148 169.671 122.028 170.343 122.028C171.399 122.028 172.251 122.298 172.899 122.838C173.547 123.366 173.895 124.098 173.943 125.034H172.683C172.647 124.458 172.419 123.996 171.999 123.648C171.591 123.288 171.027 123.108 170.307 123.108C169.671 123.108 169.155 123.258 168.759 123.558C168.363 123.858 168.165 124.23 168.165 124.674C168.165 125.058 168.279 125.376 168.507 125.628C168.747 125.868 169.041 126.06 169.389 126.204C169.737 126.336 170.205 126.486 170.793 126.654C171.501 126.846 172.065 127.032 172.485 127.212C172.905 127.392 173.265 127.656 173.565 128.004C173.865 128.352 174.021 128.814 174.033 129.39C174.033 129.918 173.889 130.392 173.601 130.812C173.313 131.22 172.911 131.544 172.395 131.784C171.879 132.024 171.285 132.144 170.613 132.144ZM181.085 121.992C181.829 121.992 182.495 122.148 183.083 122.46C183.683 122.772 184.151 123.252 184.487 123.9C184.835 124.536 185.009 125.316 185.009 126.24V132H183.767V126.384C183.767 125.316 183.497 124.5 182.957 123.936C182.429 123.372 181.703 123.09 180.779 123.09C179.831 123.09 179.075 123.39 178.511 123.99C177.947 124.59 177.665 125.472 177.665 126.636V132H176.405V118.68H177.665V123.846C177.977 123.258 178.433 122.802 179.033 122.478C179.645 122.154 180.329 121.992 181.085 121.992ZM189.433 123.234V129.336C189.433 129.936 189.547 130.35 189.775 130.578C190.003 130.806 190.405 130.92 190.981 130.92H192.133V132H190.783C189.895 132 189.235 131.796 188.803 131.388C188.371 130.968 188.155 130.284 188.155 129.336V123.234H186.787V122.172H188.155V119.706H189.433V122.172H192.133V123.234H189.433ZM197.595 132.144C196.467 132.144 195.543 131.886 194.823 131.37C194.115 130.842 193.719 130.128 193.635 129.228H194.931C194.991 129.78 195.249 130.23 195.705 130.578C196.173 130.914 196.797 131.082 197.577 131.082C198.261 131.082 198.795 130.92 199.179 130.596C199.575 130.272 199.773 129.87 199.773 129.39C199.773 129.054 199.665 128.778 199.449 128.562C199.233 128.346 198.957 128.178 198.621 128.058C198.297 127.926 197.853 127.788 197.289 127.644C196.557 127.452 195.963 127.26 195.507 127.068C195.051 126.876 194.661 126.594 194.337 126.222C194.025 125.838 193.869 125.328 193.869 124.692C193.869 124.212 194.013 123.768 194.301 123.36C194.589 122.952 194.997 122.628 195.525 122.388C196.053 122.148 196.653 122.028 197.325 122.028C198.381 122.028 199.233 122.298 199.881 122.838C200.529 123.366 200.877 124.098 200.925 125.034H199.665C199.629 124.458 199.401 123.996 198.981 123.648C198.573 123.288 198.009 123.108 197.289 123.108C196.653 123.108 196.137 123.258 195.741 123.558C195.345 123.858 195.147 124.23 195.147 124.674C195.147 125.058 195.261 125.376 195.489 125.628C195.729 125.868 196.023 126.06 196.371 126.204C196.719 126.336 197.187 126.486 197.775 126.654C198.483 126.846 199.047 127.032 199.467 127.212C199.887 127.392 200.247 127.656 200.547 128.004C200.847 128.352 201.003 128.814 201.015 129.39C201.015 129.918 200.871 130.392 200.583 130.812C200.295 131.22 199.893 131.544 199.377 131.784C198.861 132.024 198.267 132.144 197.595 132.144ZM203.603 132.09C203.339 132.09 203.117 132 202.937 131.82C202.769 131.64 202.685 131.418 202.685 131.154C202.685 130.89 202.769 130.674 202.937 130.506C203.117 130.326 203.339 130.236 203.603 130.236C203.855 130.236 204.065 130.326 204.233 130.506C204.413 130.674 204.503 130.89 204.503 131.154C204.503 131.418 204.413 131.64 204.233 131.82C204.065 132 203.855 132.09 203.603 132.09Z" fill="white"/>
<rect width="77.5337" height="78.243" rx="11.4722" transform="matrix(0.870991 -0.491299 0.478546 0.878062 310.306 21.0918)" fill="#FFC482" fill-opacity="0.3"/>
<rect x="304" y="41.6748" width="52.9607" height="52.9607" rx="11.4722" transform="rotate(-29.0063 304 41.6748)" fill="#FFC482" fill-opacity="0.3"/>
</g>
</g>
<defs>
<filter id="filter0_d_370_362" x="0" y="0" width="423" height="227" filterUnits="userSpaceOnUse" color-interpolation-filters="sRGB">
<feFlood flood-opacity="0" result="BackgroundImageFix"/>
<feColorMatrix in="SourceAlpha" type="matrix" values="0 0 0 0 0 0 0 0 0 0 0 0 0 0 0 0 0 0 127 0" result="hardAlpha"/>
<feOffset dx="2" dy="4"/>
<feGaussianBlur stdDeviation="10"/>
<feComposite in2="hardAlpha" operator="out"/>
<feColorMatrix type="matrix" values="0 0 0 0 0 0 0 0 0 0 0 0 0 0 0 0 0 0 0.25 0"/>
<feBlend mode="normal" in2="BackgroundImageFix" result="effect1_dropShadow_370_362"/>
<feBlend mode="normal" in="SourceGraphic" in2="effect1_dropShadow_370_362" result="shape"/>
</filter>
<linearGradient id="paint0_linear_370_362" x1="210" y1="16" x2="213.489" y2="202.935" gradientUnits="userSpaceOnUse">
<stop offset="0.269231" stop-color="#FF7C34"/>
<stop offset="1" stop-color="#FFC482"/>
</linearGradient>
<clipPath id="clip0_370_362">
<rect x="18" y="16" width="383" height="187" rx="25" fill="white"/>
</clipPath>
</defs>
</svg>
